<svg xmlns="http://www.w3.org/2000/svg" viewBox="0 0 64 64">
  <!-- Background -->
  <rect width="64" height="64" rx="12" fill="#0A7A70"/>

  <!-- QR code corners - top left -->
  <rect x="6" y="6" width="18" height="18" rx="3" fill="white"/>
  <rect x="9" y="9" width="12" height="12" rx="2" fill="#0A7A70"/>
  <rect x="11" y="11" width="8" height="8" rx="1" fill="white"/>

  <!-- QR code corners - top right -->
  <rect x="40" y="6" width="18" height="18" rx="3" fill="white"/>
  <rect x="43" y="9" width="12" height="12" rx="2" fill="#0A7A70"/>
  <rect x="45" y="11" width="8" height="8" rx="1" fill="white"/>

  <!-- QR code corners - bottom left -->
  <rect x="6" y="40" width="18" height="18" rx="3" fill="white"/>
  <rect x="9" y="43" width="12" height="12" rx="2" fill="#0A7A70"/>
  <rect x="11" y="45" width="8" height="8" rx="1" fill="white"/>

  <!-- QR data dots - center pattern -->
  <rect x="28" y="6" width="4" height="4" rx="1" fill="white"/>
  <rect x="34" y="6" width="4" height="4" rx="1" fill="white"/>
  <rect x="6" y="28" width="4" height="4" rx="1" fill="white"/>
  <rect x="6" y="34" width="4" height="4" rx="1" fill="white"/>

  <!-- Golden M - center -->
  <text x="32" y="43" font-family="Georgia, serif" font-size="22" font-weight="bold"
        fill="#C9A84C" text-anchor="middle" letter-spacing="-1">M</text>
</svg>
